<svg width="1000" height="1000" viewBox="0 0 1000 1000" xmlns="http://www.w3.org/2000/svg"><defs><linearGradient id="g_event-1" x1="0%" y1="0%" x2="100%" y2="100%" gradientTransform="rotate(135)"><stop offset="0%" stop-color="#0FA958"/><stop offset="55%" stop-color="#0d914c"/><stop offset="100%" stop-color="#0B7A40"/></linearGradient><radialGradient id="vg_event-1" cx="30%" cy="20%" r="90%"><stop offset="0%" stop-color="#ffffff" stop-opacity="0.10"/><stop offset="100%" stop-color="#000000" stop-opacity="0.18"/></radialGradient></defs><rect width="1000" height="1000" fill="url(#g_event-1)"/><path d="M731.6,240.5 Q722.1,120.3 775.4,-47.6" stroke="#FBF6EC" stroke-width="2.1707874905797935" fill="none" stroke-linecap="round" opacity="0.55"/><path d="M744.8,142.8 Q735.7,129.9 716.8,124.4 Q735.7,145.9 744.8,142.8 Z" fill="#FBF6EC" opacity="0.28"/><path d="M757.9,45.6 Q759.1,38.3 777.5,44.9 Q759.1,54.3 757.9,45.6 Z" fill="#FBF6EC" opacity="0.28"/><path d="M456.3,418.3 Q567.7,283.7 628.8,76.6" stroke="#FBF6EC" stroke-width="2.1526161987080483" fill="none" stroke-linecap="round" opacity="0.55"/><path d="M496.8,355.4 Q501.3,339.3 519.4,358.1 Q501.3,355.3 496.8,355.4 Z" fill="#FBF6EC" opacity="0.28"/><path d="M521.3,285.2 Q543.2,268.6 550.3,285.9 Q543.2,284.6 521.3,285.2 Z" fill="#FBF6EC" opacity="0.28"/><path d="M564.1,217.1 Q556.8,209.4 548.3,201.2 Q556.8,225.4 564.1,217.1 Z" fill="#FBF6EC" opacity="0.28"/><path d="M589.7,142.2 Q607.0,139.8 616.0,139.9 Q607.0,155.8 589.7,142.2 Z" fill="#FBF6EC" opacity="0.28"/><path d="M689.2,552.9 Q687.5,408.8 729.6,206.4" stroke="#FBF6EC" stroke-width="1.6845643140558981" fill="none" stroke-linecap="round" opacity="0.55"/><path d="M697.4,463.3 Q681.9,458.7 663.3,452.0 Q681.9,474.7 697.4,463.3 Z" fill="#FBF6EC" opacity="0.28"/><path d="M705.4,379.4 Q715.2,365.0 728.2,372.1 Q715.2,381.0 705.4,379.4 Z" fill="#FBF6EC" opacity="0.28"/><path d="M717.1,298.7 Q710.0,286.4 703.3,286.5 Q710.0,302.4 717.1,298.7 Z" fill="#FBF6EC" opacity="0.28"/><path d="M200.4,311.8 Q239.5,187.7 318.3,60.2" stroke="#FBF6EC" stroke-width="1.9211175924047663" fill="none" stroke-linecap="round" opacity="0.55"/><path d="M229.8,266.3 Q215.5,252.7 216.1,237.7 Q215.5,268.7 229.8,266.3 Z" fill="#FBF6EC" opacity="0.28"/><path d="M249.2,208.3 Q245.5,195.4 233.1,192.0 Q245.5,211.4 249.2,208.3 Z" fill="#FBF6EC" opacity="0.28"/><path d="M267.0,155.1 Q286.1,145.2 298.1,151.5 Q286.1,161.2 267.0,155.1 Z" fill="#FBF6EC" opacity="0.28"/><path d="M293.1,112.4 Q297.2,94.5 281.4,88.4 Q297.2,110.5 293.1,112.4 Z" fill="#FBF6EC" opacity="0.28"/><path d="M271.8,205.5 Q296.1,72.3 270.7,-72.1" stroke="#FBF6EC" stroke-width="1.6806428044399642" fill="none" stroke-linecap="round" opacity="0.55"/><path d="M270.3,116.9 Q268.7,98.4 254.6,102.4 Q268.7,114.4 270.3,116.9 Z" fill="#FBF6EC" opacity="0.28"/><path d="M274.7,22.9 Q290.9,12.9 291.2,12.1 Q290.9,28.9 274.7,22.9 Z" fill="#FBF6EC" opacity="0.28"/><path d="M230.3,315.2 Q214.7,248.5 226.3,125.3" stroke="#FBF6EC" stroke-width="1.2516635196107813" fill="none" stroke-linecap="round" opacity="0.55"/><path d="M233.6,278.3 Q246.9,274.2 250.1,270.9 Q246.9,290.2 233.6,278.3 Z" fill="#FBF6EC" opacity="0.28"/><path d="M230.7,244.0 Q228.3,234.6 208.0,235.3 Q228.3,250.6 230.7,244.0 Z" fill="#FBF6EC" opacity="0.28"/><path d="M229.0,201.1 Q215.8,191.3 197.1,191.9 Q215.8,207.3 229.0,201.1 Z" fill="#FBF6EC" opacity="0.28"/><path d="M228.4,158.3 Q222.6,137.7 198.0,142.3 Q222.6,153.7 228.4,158.3 Z" fill="#FBF6EC" opacity="0.28"/><path d="M866.5,690.3 Q856.9,518.7 823.3,413.6" stroke="#FBF6EC" stroke-width="1.3519072780455086" fill="none" stroke-linecap="round" opacity="0.55"/><path d="M849.8,622.9 Q836.2,604.8 830.8,613.1 Q836.2,620.8 849.8,622.9 Z" fill="#FBF6EC" opacity="0.28"/><path d="M845.7,550.7 Q833.6,539.4 826.6,549.4 Q833.6,555.4 845.7,550.7 Z" fill="#FBF6EC" opacity="0.28"/><path d="M834.2,484.3 Q808.8,473.1 800.1,473.1 Q808.8,489.1 834.2,484.3 Z" fill="#FBF6EC" opacity="0.28"/><path d="M762.2,758.2 Q741.1,632.5 772.2,482.6" stroke="#FBF6EC" stroke-width="1.6660511876201638" fill="none" stroke-linecap="round" opacity="0.55"/><path d="M761.2,691.0 Q743.6,666.7 735.7,672.4 Q743.6,682.7 761.2,691.0 Z" fill="#FBF6EC" opacity="0.28"/><path d="M772.6,615.9 Q786.1,607.2 796.6,602.1 Q786.1,623.2 772.6,615.9 Z" fill="#FBF6EC" opacity="0.28"/><path d="M771.4,551.4 Q763.3,546.5 750.6,543.2 Q763.3,562.5 771.4,551.4 Z" fill="#FBF6EC" opacity="0.28"/><path d="M829.4,696.0 Q807.2,535.1 785.6,400.6" stroke="#FBF6EC" stroke-width="1.3321107626612276" fill="none" stroke-linecap="round" opacity="0.55"/><path d="M809.4,595.1 Q787.5,586.8 783.8,584.7 Q787.5,602.8 809.4,595.1 Z" fill="#FBF6EC" opacity="0.28"/><path d="M798.7,504.3 Q803.7,492.1 818.6,486.6 Q803.7,508.1 798.7,504.3 Z" fill="#FBF6EC" opacity="0.28"/><path d="M190.1,338.0 Q170.4,238.0 167.4,94.6" stroke="#FBF6EC" stroke-width="1.3760835315110276" fill="none" stroke-linecap="round" opacity="0.55"/><path d="M189.8,274.6 Q196.8,264.2 211.6,263.0 Q196.8,280.2 189.8,274.6 Z" fill="#FBF6EC" opacity="0.28"/><path d="M177.8,214.0 Q183.4,202.7 205.4,191.0 Q183.4,218.7 177.8,214.0 Z" fill="#FBF6EC" opacity="0.28"/><path d="M177.5,158.6 Q169.6,155.0 157.9,153.8 Q169.6,171.0 177.5,158.6 Z" fill="#FBF6EC" opacity="0.28"/><path d="M634.0,260.9 Q608.1,152.3 605.1,76.6" stroke="#FBF6EC" stroke-width="1.6012508391284506" fill="none" stroke-linecap="round" opacity="0.55"/><path d="M622.2,200.6 Q608.8,181.2 604.2,194.1 Q608.8,197.2 622.2,200.6 Z" fill="#FBF6EC" opacity="0.28"/><path d="M610.5,140.2 Q616.4,129.6 629.6,128.1 Q616.4,145.6 610.5,140.2 Z" fill="#FBF6EC" opacity="0.28"/><path d="M573.1,538.8 Q545.5,407.5 596.6,273.8" stroke="#FBF6EC" stroke-width="1.4658535614073123" fill="none" stroke-linecap="round" opacity="0.55"/><path d="M577.0,483.6 Q593.5,478.2 609.4,477.8 Q593.5,494.2 577.0,483.6 Z" fill="#FBF6EC" opacity="0.28"/><path d="M586.2,431.9 Q580.0,416.5 569.6,424.6 Q580.0,432.5 586.2,431.9 Z" fill="#FBF6EC" opacity="0.28"/><path d="M587.5,376.6 Q604.2,355.7 621.3,364.3 Q604.2,371.7 587.5,376.6 Z" fill="#FBF6EC" opacity="0.28"/><path d="M592.7,325.1 Q573.8,303.3 570.8,317.0 Q573.8,319.3 592.7,325.1 Z" fill="#FBF6EC" opacity="0.28"/><path d="M70.6,734.2 Q133.0,657.9 152.6,515.3" stroke="#FBF6EC" stroke-width="2.107230833480215" fill="none" stroke-linecap="round" opacity="0.55"/><path d="M95.4,659.6 Q118.2,644.3 127.0,649.4 Q118.2,660.3 95.4,659.6 Z" fill="#FBF6EC" opacity="0.28"/><path d="M123.2,592.7 Q109.9,576.4 102.3,563.8 Q109.9,592.4 123.2,592.7 Z" fill="#FBF6EC" opacity="0.28"/><path d="M881.0,760.4 Q950.2,616.8 941.4,487.4" stroke="#FBF6EC" stroke-width="1.825050930998643" fill="none" stroke-linecap="round" opacity="0.55"/><path d="M904.1,669.2 Q895.2,653.8 883.7,655.9 Q895.2,669.8 904.1,669.2 Z" fill="#FBF6EC" opacity="0.28"/><path d="M925.0,575.2 Q949.7,558.8 956.1,564.0 Q949.7,574.8 925.0,575.2 Z" fill="#FBF6EC" opacity="0.28"/><path d="M119.6,616.1 Q157.2,526.7 189.4,360.8" stroke="#FBF6EC" stroke-width="1.8466125462497898" fill="none" stroke-linecap="round" opacity="0.55"/><path d="M147.8,529.0 Q133.1,522.0 132.3,516.1 Q133.1,538.0 147.8,529.0 Z" fill="#FBF6EC" opacity="0.28"/><path d="M172.0,448.2 Q154.4,433.3 144.0,429.1 Q154.4,449.3 172.0,448.2 Z" fill="#FBF6EC" opacity="0.28"/><path d="M353.4,785.1 Q394.4,586.4 378.4,457.9" stroke="#FBF6EC" stroke-width="1.9497509568792912" fill="none" stroke-linecap="round" opacity="0.55"/><path d="M363.2,703.4 Q380.1,690.3 393.4,690.6 Q380.1,706.3 363.2,703.4 Z" fill="#FBF6EC" opacity="0.28"/><path d="M368.8,625.6 Q356.5,605.1 350.0,610.8 Q356.5,621.1 368.8,625.6 Z" fill="#FBF6EC" opacity="0.28"/><path d="M366.8,539.4 Q389.0,529.0 393.5,534.3 Q389.0,545.0 366.8,539.4 Z" fill="#FBF6EC" opacity="0.28"/><ellipse cx="922.1" cy="616.6" rx="48.4" ry="32.8" fill="#E8B4A0" opacity="0.6" transform="rotate(-7.3 922.1 616.6)"/><ellipse cx="894.1" cy="679.7" rx="48.4" ry="32.8" fill="#E8B4A0" opacity="0.6" transform="rotate(55.2 894.1 679.7)"/><ellipse cx="827.0" cy="684.8" rx="48.4" ry="32.8" fill="#E8B4A0" opacity="0.6" transform="rotate(116.1 827.0 684.8)"/><ellipse cx="790.1" cy="619.5" rx="48.4" ry="32.8" fill="#E8B4A0" opacity="0.6" transform="rotate(184.9 790.1 619.5)"/><ellipse cx="821.7" cy="568.4" rx="48.4" ry="32.8" fill="#E8B4A0" opacity="0.6" transform="rotate(238.7 821.7 568.4)"/><ellipse cx="890.2" cy="568.1" rx="48.4" ry="32.8" fill="#E8B4A0" opacity="0.6" transform="rotate(300.7 890.2 568.1)"/><circle cx="856.3" cy="625.1" r="21.9" fill="#153C22" opacity="0.7"/><ellipse cx="855.1" cy="151.4" rx="45.3" ry="30.7" fill="#E8B4A0" opacity="0.6" transform="rotate(4.9 855.1 151.4)"/><ellipse cx="806.3" cy="206.8" rx="45.3" ry="30.7" fill="#E8B4A0" opacity="0.6" transform="rotate(77.8 806.3 206.8)"/><ellipse cx="740.3" cy="178.6" rx="45.3" ry="30.7" fill="#E8B4A0" opacity="0.6" transform="rotate(148.4 740.3 178.6)"/><ellipse cx="741.5" cy="111.7" rx="45.3" ry="30.7" fill="#E8B4A0" opacity="0.6" transform="rotate(213.6 741.5 111.7)"/><ellipse cx="805.4" cy="85.1" rx="45.3" ry="30.7" fill="#E8B4A0" opacity="0.6" transform="rotate(281.3 805.4 85.1)"/><circle cx="793.2" cy="146.1" r="20.5" fill="#153C22" opacity="0.7"/><ellipse cx="639.1" cy="658.6" rx="51.9" ry="35.2" fill="#E8B4A0" opacity="0.6" transform="rotate(-7.9 639.1 658.6)"/><ellipse cx="584.8" cy="737.7" rx="51.9" ry="35.2" fill="#E8B4A0" opacity="0.6" transform="rotate(76.8 584.8 737.7)"/><ellipse cx="507.6" cy="705.3" rx="51.9" ry="35.2" fill="#E8B4A0" opacity="0.6" transform="rotate(148.8 507.6 705.3)"/><ellipse cx="512.1" cy="625.0" rx="51.9" ry="35.2" fill="#E8B4A0" opacity="0.6" transform="rotate(217.5 512.1 625.0)"/><ellipse cx="588.1" cy="599.9" rx="51.9" ry="35.2" fill="#E8B4A0" opacity="0.6" transform="rotate(285.9 588.1 599.9)"/><circle cx="568.6" cy="668.4" r="23.5" fill="#153C22" opacity="0.7"/><ellipse cx="527.3" cy="153.2" rx="50.6" ry="34.3" fill="#E8B4A0" opacity="0.6" transform="rotate(-7.1 527.3 153.2)"/><ellipse cx="473.1" cy="229.7" rx="50.6" ry="34.3" fill="#E8B4A0" opacity="0.6" transform="rotate(77.8 473.1 229.7)"/><ellipse cx="403.5" cy="204.2" rx="50.6" ry="34.3" fill="#E8B4A0" opacity="0.6" transform="rotate(142.4 403.5 204.2)"/><ellipse cx="403.0" cy="120.2" rx="50.6" ry="34.3" fill="#E8B4A0" opacity="0.6" transform="rotate(216.8 403.0 120.2)"/><ellipse cx="480.7" cy="96.1" rx="50.6" ry="34.3" fill="#E8B4A0" opacity="0.6" transform="rotate(288.7 480.7 96.1)"/><circle cx="458.5" cy="161.9" r="22.9" fill="#153C22" opacity="0.7"/><ellipse cx="257.1" cy="248.9" rx="46.2" ry="31.3" fill="#E8B4A0" opacity="0.6" transform="rotate(3.8 257.1 248.9)"/><ellipse cx="219.0" cy="302.9" rx="46.2" ry="31.3" fill="#E8B4A0" opacity="0.6" transform="rotate(66.7 219.0 302.9)"/><ellipse cx="140.1" cy="278.2" rx="46.2" ry="31.3" fill="#E8B4A0" opacity="0.6" transform="rotate(148.1 140.1 278.2)"/><ellipse cx="144.2" cy="205.4" rx="46.2" ry="31.3" fill="#E8B4A0" opacity="0.6" transform="rotate(218.3 144.2 205.4)"/><ellipse cx="213.6" cy="184.5" rx="46.2" ry="31.3" fill="#E8B4A0" opacity="0.6" transform="rotate(288.1 213.6 184.5)"/><circle cx="193.9" cy="244.7" r="20.9" fill="#153C22" opacity="0.7"/><ellipse cx="448.2" cy="834.6" rx="59.9" ry="40.6" fill="#E8B4A0" opacity="0.6" transform="rotate(5.5 448.2 834.6)"/><ellipse cx="382.3" cy="907.3" rx="59.9" ry="40.6" fill="#E8B4A0" opacity="0.6" transform="rotate(78.8 382.3 907.3)"/><ellipse cx="298.7" cy="873.1" rx="59.9" ry="40.6" fill="#E8B4A0" opacity="0.6" transform="rotate(145.7 298.7 873.1)"/><ellipse cx="305.8" cy="771.5" rx="59.9" ry="40.6" fill="#E8B4A0" opacity="0.6" transform="rotate(222.4 305.8 771.5)"/><ellipse cx="396.1" cy="750.3" rx="59.9" ry="40.6" fill="#E8B4A0" opacity="0.6" transform="rotate(291.2 396.1 750.3)"/><circle cx="366.4" cy="826.8" r="27.0" fill="#153C22" opacity="0.7"/><ellipse cx="947.9" cy="652.7" rx="57.8" ry="39.1" fill="#E8B4A0" opacity="0.6" transform="rotate(4.7 947.9 652.7)"/><ellipse cx="901.6" cy="718.4" rx="57.8" ry="39.1" fill="#E8B4A0" opacity="0.6" transform="rotate(65.7 901.6 718.4)"/><ellipse cx="834.3" cy="717.4" rx="57.8" ry="39.1" fill="#E8B4A0" opacity="0.6" transform="rotate(116.0 834.3 717.4)"/><ellipse cx="789.8" cy="643.3" rx="57.8" ry="39.1" fill="#E8B4A0" opacity="0.6" transform="rotate(182.1 789.8 643.3)"/><ellipse cx="833.1" cy="575.6" rx="57.8" ry="39.1" fill="#E8B4A0" opacity="0.6" transform="rotate(243.1 833.1 575.6)"/><ellipse cx="904.5" cy="575.4" rx="57.8" ry="39.1" fill="#E8B4A0" opacity="0.6" transform="rotate(296.7 904.5 575.4)"/><circle cx="869.0" cy="646.2" r="26.1" fill="#153C22" opacity="0.7"/><ellipse cx="346.6" cy="673.2" rx="61.4" ry="41.6" fill="#E8B4A0" opacity="0.6" transform="rotate(-0.7 346.6 673.2)"/><ellipse cx="280.1" cy="756.6" rx="61.4" ry="41.6" fill="#E8B4A0" opacity="0.6" transform="rotate(77.9 280.1 756.6)"/><ellipse cx="200.4" cy="731.3" rx="61.4" ry="41.6" fill="#E8B4A0" opacity="0.6" transform="rotate(137.4 200.4 731.3)"/><ellipse cx="190.2" cy="630.9" rx="61.4" ry="41.6" fill="#E8B4A0" opacity="0.6" transform="rotate(211.0 190.2 630.9)"/><ellipse cx="284.0" cy="592.9" rx="61.4" ry="41.6" fill="#E8B4A0" opacity="0.6" transform="rotate(284.9 284.0 592.9)"/><circle cx="262.4" cy="674.2" r="27.7" fill="#153C22" opacity="0.7"/><ellipse cx="389.1" cy="501.5" rx="61.2" ry="41.5" fill="#E8B4A0" opacity="0.6" transform="rotate(5.5 389.1 501.5)"/><ellipse cx="330.8" cy="573.5" rx="61.2" ry="41.5" fill="#E8B4A0" opacity="0.6" transform="rotate(72.5 330.8 573.5)"/><ellipse cx="232.8" cy="535.4" rx="61.2" ry="41.5" fill="#E8B4A0" opacity="0.6" transform="rotate(150.0 232.8 535.4)"/><ellipse cx="232.5" cy="452.2" rx="61.2" ry="41.5" fill="#E8B4A0" opacity="0.6" transform="rotate(209.4 232.5 452.2)"/><ellipse cx="325.6" cy="412.0" rx="61.2" ry="41.5" fill="#E8B4A0" opacity="0.6" transform="rotate(283.8 325.6 412.0)"/><circle cx="305.5" cy="493.5" r="27.6" fill="#153C22" opacity="0.7"/><ellipse cx="781.7" cy="604.4" rx="37.7" ry="25.6" fill="#E8B4A0" opacity="0.6" transform="rotate(5.0 781.7 604.4)"/><ellipse cx="749.5" cy="647.9" rx="37.7" ry="25.6" fill="#E8B4A0" opacity="0.6" transform="rotate(68.1 749.5 647.9)"/><ellipse cx="684.9" cy="624.9" rx="37.7" ry="25.6" fill="#E8B4A0" opacity="0.6" transform="rotate(151.1 684.9 624.9)"/><ellipse cx="688.8" cy="568.8" rx="37.7" ry="25.6" fill="#E8B4A0" opacity="0.6" transform="rotate(216.9 688.8 568.8)"/><ellipse cx="740.1" cy="549.1" rx="37.7" ry="25.6" fill="#E8B4A0" opacity="0.6" transform="rotate(281.1 740.1 549.1)"/><circle cx="730.2" cy="599.9" r="17.0" fill="#153C22" opacity="0.7"/><rect width="1000" height="1000" fill="url(#vg_event-1)"/></svg>